<svg version="1.2" xmlns="http://www.w3.org/2000/svg" viewBox="0 0 1024 1024" width="1024" height="1024"><style>.a{fill:#0f407d}</style><path class="a" d="m267.1 150c-4.8 1.2-9.2 5.9-10.2 11.1-0.4 2.4-0.8 8.9-0.9 14.5 0 11.9-0.1 12-11 16-4.1 1.4-11.9 4.8-17.2 7.5-5.4 2.7-10.2 4.9-10.8 4.9-0.6 0-5.7-3.8-11.3-8.5-5.6-4.6-11.7-9.2-13.5-10-6.7-3.3-9.9-1.1-31.6 21.9-17.6 18.7-17.7 19.3-2.8 35.5 4.5 4.9 8.2 9.6 8.2 10.3 0 0.8-1.7 4.5-3.7 8.3-2 3.8-5.7 12.8-8.2 20l-4.6 13-14.2 0.5c-12.3 0.4-14.5 0.8-17 2.6-5.8 4.3-6.3 6.6-6.3 31.7 0 32.9 0 32.9 23 33.7l14.5 0.5 3.7 10.8c2 6 5.7 15.1 8.2 20.4 3.9 8 4.4 9.8 3.4 11.1-0.7 0.9-4.6 5.2-8.6 9.7-14.3 15.6-14.3 15.6 7.1 37.3 16.6 16.8 19.7 19.2 24.2 19.2 3.7 0 5.9-1.3 16-10 5-4.2 9.8-8.1 10.8-8.7 1.4-0.7 4.1 0.3 12.1 4.4 5.7 2.9 14.1 6.6 18.7 8.3 4.6 1.7 8.8 3.5 9.2 4 0.5 0.4 1.3 6.7 1.7 13.9 0.9 14.7 2.2 18.1 8 21.2 3.1 1.7 5.9 1.9 25.8 1.9 23.8 0 26.6-0.5 30.9-5.1 2.9-3.2 4.2-9.5 4.3-20.5 0-5.7 0.5-9.6 1.3-10.6 0.6-0.8 5-2.8 9.7-4.4 4.7-1.6 13.7-5.4 20-8.5l11.5-5.7 6.8 5.5c6.7 5.5 6.8 5.5 8.8 3.7 4.1-3.7 39.9-42.2 39.9-42.9 0-0.5-2-2.9-4.5-5.6l-4.4-4.8 5.4-11.3c2.9-6.2 7-16 9-21.8 2-5.7 4.1-10.8 4.8-11.2 0.6-0.4 6.8-0.7 13.6-0.7 14.3 0 18.4-1.4 21.3-7.2 1.6-2.9 1.8-6.5 1.8-26.2 0-25.9-0.4-27.9-6.9-31.5-3.4-1.9-5.4-2.2-16.9-2.2-9.4 0-13.3-0.4-13.9-1.3-0.4-0.6-2.2-5.6-4-11-1.8-5.4-5.6-14.5-8.4-20.2l-5.2-10.4 6-6.8c3.4-3.7 7.3-7.9 8.8-9.3 5.6-5.2 6.9-11.2 3.6-16.5-1-1.7-9-10.3-17.7-19.2-16.7-16.9-18.4-18-24.8-16.2-1.7 0.5-7.9 5-13.9 9.9l-10.7 8.9-9.3-4.6c-5-2.5-13.9-6.3-19.6-8.3-5.7-2-10.8-4.2-11.2-5-0.4-0.8-1.1-7.4-1.7-14.7-1.5-21.4-2-21.7-32.2-22-11.8-0.1-23 0.2-24.9 0.7zm42.4 99.9c28.7 7 51.1 29 59.1 58.1 2.5 9.1 2.6 31 0.1 40-6.1 22.5-22.8 42.6-44.1 53-10.3 5.1-17.7 7-29.6 7.7-38.9 2.3-74.9-26.7-82.6-66.5-7.8-40.9 19.1-82 60.4-92.2 10.5-2.6 26.2-2.6 36.7-0.1z"/><path class="a" d="m637.3 160.9c-37.8 6-72.4 38.3-81.4 75.8-2.4 10-2.9 25.6-1.5 44.4 0.8 11.2 0.8 11.9-1.6 17-1.7 3.7-6.8 10.1-16.4 20.4-7.7 8.2-27.9 30.1-44.9 48.5-17 18.4-44.9 48.6-62 67-36.4 39.3-80.8 87.4-119.9 129.8-27.1 29.5-32.1 34.1-39.6 36.2-1.7 0.5-9.5 1.6-17.3 2.5-16.6 1.9-22.8 3.4-31.7 8.1-17.5 9.2-46.6 41-52.9 58-4.9 13.1-5.2 30.1-0.6 45.8 6.2 21.5 19.4 37.9 38.4 48 12.7 6.6 23.4 9 38.1 8.3 21.5-1 35.1-8.4 61.5-33.9 16.3-15.7 18.9-21.8 24.5-56.3 2.1-13 4-21.5 5.4-24.2 1.3-2.6 11.8-14.1 27.1-29.5 52-52.6 175-178 235.5-240.3 12.9-13.2 24.9-25.1 26.8-26.5 3.3-2.4 4.2-2.5 22.6-3.1 20.8-0.7 27.8-2 41.9-7.9 38-15.8 64.5-60.5 59.7-100.7-2.2-18.3-8.3-32.1-13.6-30.7-1.1 0.3-10.1 12.4-20.9 28.1-10.5 15.2-20.6 28.9-22.5 30.4-4.7 4-12.1 6.2-18.1 5.7-4.2-0.4-7.4-2.2-23.5-12.9-10.3-6.8-20.3-14.3-22.4-16.7-6.7-7.6-9-19.8-5.2-27.3 1-2 10.5-16 21-31.2 10.6-15.2 19.2-28.1 19.2-28.6 0-3.7-14.1-6-25.7-4.2zm-390.8 501.8c18.5 11.2 21.2 13.2 22.9 16.8 1.8 3.7 5.6 22 5.6 26.7 0 2.9-4.6 6.9-18.8 16.3-6.2 4.1-8.2 4.9-13.1 5.3-19.6 1.4-35.4-15.1-35.5-37.3 0-10.3 1.1-12.5 13.2-24.8 7.1-7.1 10.3-9.7 12.1-9.7 1.4 0 7.5 3 13.6 6.7z"/><path class="a" d="m677 398.1c-38.5 4.7-75.4 19.6-106 42.7-9.4 7.1-27.2 24.3-35.5 34.3-25.9 30.9-42.8 69.3-48 108.7-1.7 13-2 39.9-0.5 52.2 2.9 23.9 10.2 48.8 20.3 69.5 11.4 23.2 24 40.9 42.2 59 34.7 34.5 77.6 55.7 127 62.7 13.2 1.8 42.6 1.6 56.5-0.6 87.4-13.2 158-76.9 179.5-162.1 5.1-20.2 6.9-36.5 6.2-58.5-1-33.3-6.8-56.9-21.2-86.5-30.8-63.4-88.6-107.1-158.5-119.7-13.1-2.3-48.9-3.3-62-1.7zm53 77.9c17.8 3.6 35.2 11 51.4 21.8 8.6 5.7 25.1 21.4 31.5 30 25.7 34.2 34.5 76.7 24.5 117.1-6.5 26.3-19.2 48-39.5 67.6-26.3 25.4-59.2 38.6-96.4 38.7-39.2 0.1-72.7-14-99.4-41.8-19.1-19.8-31.4-43.1-37.3-70.7-3-14.4-3-38 0-52.3 4.2-19.5 11.9-37.7 22.5-53.3 7.6-11.2 25.3-28.5 37.3-36.4 17.3-11.5 36.9-19.2 55-21.6 4.4-0.6 9.3-1.3 10.9-1.5 6.9-1 29.6 0.4 39.5 2.4z"/><path class="a" d="m679.9 490.5c-45.4 8.5-80.9 39.4-95.4 82.8-16.9 50.4 0.1 105.8 41.9 137.4 38.2 28.8 89.3 33.2 132.6 11.3 33-16.7 57.6-49.8 65.1-87.5 2.1-10.5 1.8-34.9-0.5-46-7.6-36.6-27.8-64.6-60.5-83.8-9.3-5.4-18.4-9.1-31-12.4-8.2-2.2-12.2-2.6-27.1-2.9-12.2-0.2-19.8 0.1-25.1 1.1zm-5 32.9c2.2 4.6 3.9 12.2 5.6 23.9 1.9 13.7 1.5 14.8-8.8 22.1-9.6 6.8-12.1 7.1-23.7 2.1-14.7-6.3-25-12.8-25-15.8 0-3.1 14.7-18 24.3-24.6 7.1-4.8 20.9-11.2 23.7-10.9 1.6 0.2 3 1.3 3.9 3.2zm67.3-0.4c10.4 4.4 20.2 11.3 29.5 20.6 9.4 9.4 10.9 12.7 7.2 15.7-3.5 2.9-27.7 14.4-32.6 15.5-3.4 0.8-4.9 0.6-7.2-0.7-5.7-3.2-14.9-10-15.5-11.6-2.2-5.8 2.6-36.4 6.5-41.1 1.7-2.1 4.3-1.7 12.1 1.6zm-28.1 71.5c6.3 4.4 9 10.4 8.7 18.6-0.4 8.2-3.6 13.5-10.5 17.6-16.4 9.6-36.5-5.8-31.3-24.1 1.6-5.7 6.3-11.4 11.4-13.8 6.4-2.9 16.2-2.1 21.7 1.7zm-78.5 19c13 2.3 14.1 3.2 17.6 14 3.9 12.4 3.5 14-6 23.5-9.5 9.4-19.6 17-22.8 17-6.4 0-17-25.1-18.9-44.7-1.1-10.8-0.6-11.3 11.4-11.3 5.4 0 13.8 0.7 18.7 1.5zm162.4 0c1.7 2 0.7 14.5-2 24.8-3.5 13.9-12 29.7-15.9 29.7-4.5 0-26.8-18.6-30.1-25.1-2.5-4.8-2.5-5.7 0.5-15.2 2.7-8.7 3.7-10.4 7.5-11.9 8.5-3.4 37.7-5.1 40-2.3zm-80.1 54.7c5.3 5.4 14.2 31.8 12.1 35.8-2.1 4-17.8 6.5-35.9 5.7-15.5-0.6-20.5-2.1-20.9-5.9-0.8-6.5 7.9-30.5 12.8-35.8l2.8-3h13 13z"/></svg>