<svg version="1.2" xmlns="http://www.w3.org/2000/svg" viewBox="0 0 800 800" width="800" height="800">
	<title>car-car-engine-svgrepo-com</title>
	<style>
		.s0 { fill: #000000 } 
	</style>
	<path class="s0" d="m800 212.4v407.6c0.2 12.9-4.7 25.3-13.7 34.4-9 9.2-21.3 14.3-34.1 14.3-12.8 0-25.1-5.1-34.1-14.3-9-9.1-13.9-21.5-13.7-34.4v-54.2h-41.8c-1.3 4.9-3.3 9.5-6.1 13.6-2.8 4.2-6.2 7.9-10.2 10.9-3.9 3.1-8.4 5.5-13.1 7.1-4.8 1.6-9.7 2.5-14.7 2.5h-479.8c-6 0-12-1.2-17.5-3.5-5.5-2.3-10.6-5.7-14.8-9.9-4.2-4.3-7.6-9.3-9.9-14.8-2.3-5.6-3.5-11.5-3.5-17.5v-50.1h-29.9v61c0 1.8-0.3 3.6-1 5.3-0.7 1.6-1.7 3.2-3 4.4-1.3 1.3-2.8 2.3-4.5 3-1.7 0.7-3.5 1.1-5.3 1.1h-35.5c-1.8 0-3.6-0.4-5.3-1.1-1.7-0.7-3.2-1.7-4.5-3-1.2-1.2-2.3-2.8-2.9-4.4-0.7-1.7-1.1-3.5-1.1-5.3v-298c0-1.8 0.4-3.6 1.1-5.3 0.6-1.7 1.7-3.2 2.9-4.5 1.3-1.3 2.8-2.3 4.5-3 1.7-0.7 3.5-1 5.3-1h35.5c1.8 0 3.6 0.3 5.3 1 1.7 0.7 3.2 1.7 4.5 3 1.3 1.3 2.3 2.8 3 4.5 0.7 1.7 1 3.5 1 5.3v60.9h29.8v-49.8c0-6 1.2-11.9 3.5-17.5 2.3-5.5 5.7-10.5 9.9-14.8 4.3-4.2 9.3-7.6 14.8-9.9 5.6-2.3 11.5-3.4 17.5-3.4h36.8v-27.5h-12.7c-1.8 0-3.6-0.4-5.3-1.1-1.6-0.7-3.2-1.7-4.5-3-1.2-1.2-2.3-2.8-2.9-4.4-0.7-1.7-1.1-3.5-1.1-5.3v-45.4c0-1.8 0.4-3.6 1.1-5.3 0.6-1.7 1.7-3.2 2.9-4.5 1.3-1.2 2.9-2.3 4.5-3 1.7-0.6 3.5-1 5.3-1h91.9c1.8 0 3.6 0.4 5.3 1 1.7 0.7 3.2 1.8 4.5 3 1.2 1.3 2.3 2.8 3 4.5 0.6 1.7 1 3.5 1 5.3v45.4c0 1.8-0.4 3.6-1 5.3-0.7 1.6-1.8 3.2-3 4.4-1.3 1.3-2.8 2.3-4.5 3-1.7 0.7-3.5 1.1-5.3 1.1h-12.7v27.5h103.3v-27.5h-12.6c-1.8 0-3.6-0.4-5.3-1.1-1.7-0.7-3.2-1.7-4.5-3-1.3-1.2-2.3-2.8-3-4.4-0.7-1.7-1-3.5-1-5.3v-45.4c0-1.8 0.3-3.6 1-5.3 0.7-1.7 1.7-3.2 3-4.5 1.3-1.2 2.8-2.3 4.5-3 1.7-0.6 3.5-1 5.3-1h91.9c1.8 0 3.6 0.4 5.2 1 1.7 0.7 3.2 1.8 4.5 3 1.3 1.3 2.3 2.8 3 4.5 0.7 1.7 1.1 3.5 1.1 5.3v45.4c0 1.8-0.4 3.6-1.1 5.3-0.7 1.6-1.7 3.2-3 4.4-1.3 1.3-2.8 2.3-4.5 3-1.6 0.7-3.4 1.1-5.2 1.1h-12.7v27.5h103.3v-27.5h-12.7c-1.8 0-3.6-0.4-5.2-1.1-1.7-0.7-3.2-1.7-4.5-3-1.3-1.2-2.3-2.8-3-4.4-0.7-1.7-1.1-3.5-1.1-5.3v-45.4c0-1.8 0.4-3.6 1.1-5.3 0.7-1.7 1.7-3.2 3-4.5 1.3-1.2 2.8-2.3 4.5-3 1.6-0.6 3.4-1 5.2-1h91.9c1.8 0 3.6 0.4 5.3 1 1.7 0.7 3.2 1.8 4.5 3 1.3 1.3 2.3 2.8 3 4.5 0.7 1.7 1 3.5 1 5.3v45.4c0 1.8-0.3 3.6-1 5.3-0.7 1.6-1.7 3.2-3 4.4-1.3 1.3-2.8 2.3-4.5 3-1.7 0.7-3.5 1.1-5.3 1.1h-12.6v27.5h36.8c5 0 9.9 0.8 14.6 2.4 4.8 1.6 9.2 4 13.2 7 3.9 3.1 7.4 6.8 10.2 10.9 2.7 4.2 4.8 8.8 6.1 13.6h41.8v-54.1c0.3-12.6 5.4-24.5 14.3-33.2 9-8.8 21-13.7 33.5-13.7 12.5 0 24.5 4.9 33.5 13.7 8.9 8.7 14.1 20.6 14.3 33.2zm-163.4 115.7h-516.1v226.1c0 2.4 0.5 4.7 1.4 6.9 0.9 2.2 2.2 4.2 3.9 5.9 1.7 1.6 3.7 3 5.9 3.9 2.2 0.9 4.5 1.4 6.9 1.4h479.8c2.3 0 4.7-0.5 6.9-1.4 2.2-0.9 4.2-2.2 5.8-3.9 1.7-1.7 3.1-3.7 4-5.9 0.9-2.2 1.3-4.5 1.3-6.9zm-88.1 175.9h-68c-3.6 0-7.2 1.4-9.7 4-2.6 2.6-4.1 6.1-4.1 9.8 0 3.7 1.5 7.2 4.1 9.8 2.5 2.6 6.1 4 9.7 4h68c3.7 0 7.2-1.4 9.8-4 2.5-2.6 4-6.1 4-9.8 0-3.7-1.5-7.2-4-9.8-2.6-2.6-6.1-4-9.8-4zm-339.6-39.8c-19.4 0-36.8-11.7-44.2-29.6-7.4-17.9-3.3-38.5 10.4-52.2 13.7-13.7 34.3-17.8 52.2-10.4 17.9 7.4 29.6 24.9 29.6 44.3 0 6.3-1.3 12.5-3.7 18.3-2.4 5.8-6 11.1-10.4 15.6-4.5 4.4-9.7 7.9-15.6 10.3-5.8 2.5-12 3.7-18.3 3.7zm0-27.6c8.2 0 15.6-5 18.7-12.6 3.2-7.5 1.4-16.3-4.4-22.1-5.8-5.8-14.5-7.5-22.1-4.4-7.6 3.2-12.5 10.6-12.5 18.8 0 2.7 0.5 5.3 1.5 7.8 1.1 2.4 2.6 4.7 4.4 6.5 1.9 1.9 4.2 3.4 6.6 4.4 2.5 1.1 5.1 1.6 7.8 1.6zm387.4-54.4v67.9c0 1.9-0.4 3.7-1.1 5.3-0.7 1.7-1.7 3.2-3 4.5-1.3 1.3-2.8 2.3-4.5 3-1.6 0.7-3.4 1.1-5.2 1.1h-135.9c-1.8 0-3.6-0.4-5.3-1.1-1.7-0.7-3.2-1.7-4.5-3-1.3-1.3-2.3-2.8-3-4.5-0.7-1.6-1-3.4-1-5.3v-67.9c0-1.8 0.3-3.6 1-5.3 0.7-1.7 1.7-3.2 3-4.5 1.3-1.3 2.8-2.3 4.5-3 1.7-0.7 3.5-1 5.3-1h135.9c1.8 0 3.6 0.3 5.2 1 1.7 0.7 3.2 1.7 4.5 3 1.3 1.3 2.3 2.8 3 4.5 0.7 1.7 1.1 3.5 1.1 5.3zm-27.6 13.8h-108.3v40.3h108.3zm-142.3 121.9c0 1.8-0.3 3.6-1 5.2-0.7 1.7-1.8 3.2-3 4.5-1.3 1.3-2.8 2.3-4.5 3-1.7 0.7-3.5 1.1-5.3 1.1h-67.9c-3.7 0-7.2-1.5-9.8-4.1-2.6-2.6-4-6.1-4-9.7 0-3.7 1.4-7.2 4-9.8 2.6-2.6 6.1-4.1 9.8-4.1h67.9c1.8 0 3.6 0.4 5.3 1.1 1.7 0.7 3.2 1.7 4.5 3 1.2 1.3 2.3 2.8 3 4.5 0.7 1.6 1 3.4 1 5.3zm305.8-13.6h40.3v-40.4h-40.3zm40.3-67.9v-40.3h-40.3v40.3zm0-67.9v-40.3h-40.4v40.3zm0-67.9v-40.3h-40.3v40.3zm-40.3 271.7h40.3v-40.3h-40.3zm0-359.8v20.2h40.3v-20.2c-0.2-5.3-2.4-10.3-6.1-13.9-3.8-3.7-8.8-5.7-14.1-5.7-5.2 0-10.3 2-14 5.7-3.8 3.6-6 8.6-6.1 13.9zm-215.8-34.9h64.2v-17.8h-64.2zm26.4 55.1h11.3v-27.5h-11.3zm-196.4-55.1h64.3v-17.7h-64.3zm26.5 55.1h11.3v-27.5h-11.3zm-196.3-55.1h64.2v-17.8h-64.2zm26.4 55.1h11.4v-27.4h-11.4zm-82.4 45.6v22.3h515.9v-22.3c0-2.4-0.5-4.7-1.4-6.9-0.9-2.2-2.2-4.1-3.9-5.8-1.7-1.7-3.6-3-5.8-3.9-2.2-0.9-4.5-1.4-6.9-1.4h-479.8c-2.4 0-4.7 0.4-6.9 1.3-2.2 0.9-4.2 2.2-5.9 3.9-1.7 1.7-3 3.7-3.9 5.9-0.9 2.2-1.4 4.5-1.4 6.9zm-85 212.2v-209.5h-7.9v270.4h7.9zm57.4-13.8v-121h-29.8v121zm183.7 27.4h-68c-3.6 0-7.2 1.5-9.8 4.1-2.5 2.6-4 6.1-4 9.8 0 3.6 1.5 7.1 4 9.7 2.6 2.6 6.2 4.1 9.8 4.1h68c3.6 0 7.1-1.5 9.7-4.1 2.6-2.6 4.1-6.1 4.1-9.7 0-3.7-1.5-7.2-4.1-9.8-2.6-2.6-6.1-4.1-9.7-4.1zm427.8 34.2v-244.1h-40.4v244.1zm68 81.9v-20.3h-40.4v20.3c-0.1 5.4 1.9 10.7 5.7 14.6 3.8 3.9 9 6.1 14.5 6.1 5.4 0 10.7-2.2 14.5-6.1 3.8-3.9 5.8-9.2 5.7-14.6z"/>
</svg>