<svg version="1.2" xmlns="http://www.w3.org/2000/svg" viewBox="0 0 1024 1024" width="1024" height="1024"><style>.a{fill:#0f407d}</style><path class="a" d="m317.7 240.4c-8.4 3-16.2 8.8-21.9 16.3-2.5 3.2-15.3 22.2-28.5 42.3-51.5 78.3-59 89.5-60.4 90.6-0.8 0.6-7.5 3-14.9 5.3-7.4 2.3-19.3 6-26.5 8.2-27.4 8.5-31.4 10-37.3 14.3-6.8 5.1-10.3 9.4-14.5 18.4l-3.2 6.7-0.3 60.2-0.3 60.2-3.5 1.1c-4.7 1.6-9.1 5.4-11.5 10.2-1.9 3.7-2 5.5-1.7 29.3l0.3 25.3 3 4.4c1.7 2.3 5.1 5.4 7.5 6.8l4.5 2.5 48.7 0.3 48.6 0.3 1.7-5.3c4.6-14.2 16.6-31.9 28.1-41.4 11.3-9.3 19.3-13.7 33.9-18.4 44.9-14.4 95.9 11.9 112.1 58l2.3 6.5 135.5 0.3 135.5 0.2 1.1-3.9c3-11.4 11.8-26 21.9-36.4 16.3-17 38-27.1 60.8-28.4 39.8-2.3 77.5 22.8 90.4 60l2.8 8.2h29.8c28.7 0 30-0.1 33.8-2.2 5.1-2.7 10.7-8.6 13.7-14.3l2.3-4.5v-99.2-99.1l-3-4.4c-1.8-2.6-4.8-5.2-7.5-6.6l-4.6-2.2-153.2-0.3c-152.6-0.2-153.2-0.2-155.2-2.2-2-2-2-3.5-2.8-71.5l-0.8-69.5-2.3-4.8c-3.9-8-11.3-15.2-19.9-19.4l-7.6-3.8-115-0.2-115.1-0.3zm212.8 47.1l2.5 2.4v52.4c0 51.5 0 52.5-2.1 55.1l-2 2.6h-126.5-126.4l-3.2-2.9c-4.7-4.2-4.6-9.6 0.2-17.1 16.8-26.6 54.8-84.2 57.3-86.9 1.8-1.8 5.5-4.4 8.2-5.7l5-2.4h92.3 92.3zm-315.6 179.9c7.6 3.1 12.3 6.8 16.6 13.1 6.1 9.1 7.8 19.1 4.9 29.1-5.7 19.6-27 30.4-46.1 23.2-4.2-1.5-7.5-3.8-12-8.3-5.1-5.2-6.4-7.2-8.2-12.9-3.6-11.7-2.3-22 4-31.2 4.4-6.5 12.1-12.1 19.9-14.5 5.4-1.6 14.9-1 20.9 1.5zm107.3 0.8c15.5 7.2 24 25.2 19.4 41-7.2 25-37.6 34.2-56.6 17.1-6.3-5.6-9.5-11.1-11-18.8-3.6-17.6 5.2-33.4 22.5-40.7 6.2-2.6 18.5-2 25.7 1.4z"/><path class="a" d="m280.6 605c-18 4.6-33.6 17-41.5 33.1-5.9 12-8 24.2-6.3 36.5 2.4 16.2 7.2 26 18.2 37 8.9 8.9 20.7 14.8 34.2 17 9.1 1.5 10.5 1.5 20-0.1 25-4.1 43.2-20 50.4-44 2.9-9.4 2.6-27.8-0.5-37.3-4.5-13.7-14.3-26.4-26.5-34.4-13.1-8.5-32.6-11.7-48-7.8z"/><path class="a" d="m728 605.3c-20.9 5.4-37.5 20.9-44.1 40.8-2 6.3-2.4 9.4-2.4 20.4 0 15.9 2.1 23.5 9.3 34.6 26.4 40.5 87.4 36.9 108.6-6.3 12.1-24.6 7.5-53.8-11.4-72.9-16-16.2-38-22.3-60-16.6z"/></svg>