<svg version="1.2" xmlns="http://www.w3.org/2000/svg" viewBox="0 0 800 800" width="800" height="800"><style>.a{fill:#808080}</style><path fill-rule="evenodd" class="a" d="m579.1 759.5c-18 7.4-38.7-1.2-46.2-19.3l-64.5-156.5c-2.3-5.6-3.1-11.8-2.4-17.8 1.2-9.6 9.9-79.6 11.1-89.4h-27.5c-3.2 24.8 1-7.3-10 76.3l35.3 166.6c4.1 19.1-8.2 37.9-27.3 42-19.1 4-37.9-8.2-42-27.3l-36.5-172.5c-0.8-3.9-1-8-0.5-11.9 19.2-146.6 17.8-136.9 18.7-140.4v-14.9c8.5 0.5 5.1 0.3 22.4 1.2 25 1.3 42.9-15.7 47.1-25.3l35.8-83-55.3 74.6c-1.7 3.4-12.5 13.2-26.5 12.5-78.7-4.1-45-2.3-123.7-6.4-17.2-0.9-30.2-15.7-29.4-32.6 0.9-17.1 15.6-30.2 32.6-29.3l107.1 5.5 50.1-67.6-60.2 47.4v-62.3c0-24 19.5-43.4 43.4-43.4h77.4c24 0 43.4 19.4 43.4 43.4v223l-14 113.2 60.9 147.9c7.4 18.1-1.2 38.8-19.3 46.3zm-301.5-473.5c-14.6 3.2-26.9 12.4-34.2 25l-70.3-43.1-8.5 13.8c-2.6 4.4-8.4 5.8-12.8 3.1l-33.8-20.7c-4.4-2.7-5.7-8.4-3.1-12.8l8.5-13.8-9-5.5c-9.2-5.7-12.1-17.7-6.5-26.9 5.6-9.2 17.7-12.1 26.9-6.5l9 5.6 12.3-20.1c3.4-5.6 9.8-9.8 17.1-10.2l41.6-2c7.4-0.3 12.3 7.8 8.4 14.2l-15.4 25.1-14.3 23.4zm86.2-36.8v39.5l-32.2-1.7-52.4-32c5.1-3.7 11.4-5.8 18.1-5.8zm105.3-82.8c-35.5 0-64.3-28.7-64.3-64.2 0-35.5 28.8-64.3 64.3-64.3 35.5 0 64.2 28.8 64.2 64.3 0 35.5-28.7 64.2-64.2 64.2z"/></svg>