<svg version="1.2" xmlns="http://www.w3.org/2000/svg" viewBox="0 0 801 803" width="801" height="803"><style>.a{fill:#bdbab9}.b{fill:#fff}.c{fill:#211715}.d{fill:#bcb9b8}.e{fill:#7a7473}</style><path class="a" d="m434.6 592c0-17.9-0.1-24.7-0.1-40.8q-0.3-3-1-5.8-0.8-2.8-2.2-5.3-1.3-2.6-3.2-4.9-1.8-2.2-4.1-4.1-1.9-1.7-4-3-2.2-1.4-4.6-2.3-2.4-1-4.9-1.5-2.5-0.5-5-0.6c-21.7 0-54.6-0.7-77.9-0.7h-152.3c-23.4 0-56.3 0.7-78 0.7q-2.5 0.1-5 0.6-2.5 0.5-4.9 1.5-2.4 0.9-4.5 2.3-2.2 1.3-4.1 3-2.3 1.9-4.1 4.1-1.9 2.3-3.2 4.9-1.3 2.5-2.1 5.3-0.8 2.8-1 5.8c0 16.1-0.2 22.9-0.2 40.8l-2.8-1.6c-3.3-3-3.1-2.4-16.9-2.1-10.8 0.1-22.8 9-22.9 19.9-0.3 30.4-1.2 60.9 0 91.9 0.3 7.2 2.7 19.6 8.4 26.2 6.2 7 12.7 12.3 27.2 12.3 36.1 0 140.4 0.1 190.9 0.1 50.4 0 154.7-0.1 190.8-0.1 14.6 0 21.1-5.3 27.2-12.3 5.8-6.6 8.2-19 8.4-26.2 1.2-31 0.4-61.5 0.1-91.9-0.2-10.9-11.1-19.6-22-19.8-13.7-0.2-14.5-1-17.9 2z"/><path class="b" d="m173.6 565.8q4.3 0.4 8.5 0.9 4.3 0.5 8.6 1.2 4.2 0.6 8.4 1.4 4.3 0.7 8.5 1.6 0.7 0.2 1.5 0.4 0.7 0.3 1.4 0.8 0.6 0.4 1.2 0.9 0.6 0.5 1.1 1.1 0.3 0.6 0.5 1.3 0.3 0.6 0.5 1.2 0.1 0.7 0.3 1.3 0.1 0.7 0.2 1.4c0.5 13.1-1.4 29.6-4.3 47.7q0 0.4-0.1 0.8-0.1 0.4-0.2 0.7-0.2 0.4-0.4 0.7-0.2 0.4-0.5 0.6-0.3 0.3-0.7 0.5-0.5 0.3-0.9 0.4-0.5 0.1-0.9 0.1-0.5 0.1-1 0c-7.2-0.2-38.1-1.1-45.2-1.6"/><path class="b" d="m167.2 557.5c-2.4-7.9-9.3-11-17.7-9.8-10.6 1.6-40.2 6.4-50.3 9.7-7.3 2.3-8.8 10.5-8.7 12.9q0.5 6.3 1.1 12.7 0.7 6.3 1.5 12.6 0.8 6.4 1.8 12.7 1.1 6.3 2.2 12.5c1.8 8.3 9.6 13 15 12.2 17.9-2.7 47.7-6.6 58.6-8.6 8.3-2.4 9.3-12.6 7.9-20.7-2.2-12.7-9.3-39.9-11.4-46.2z"/><path class="c" d="m172.1 556.1q-0.7-2.1-1.8-4.1-1.1-1.9-2.7-3.5-1.5-1.7-3.4-2.9-1.9-1.2-4-2c-5.2-1.8-10.4-1-15.6-0.2-10.3 1.6-20.6 3.3-30.8 5.4-9.2 1.8-21.2 2.8-25.9 12.2-3.9 7.5-1.9 16.1-1.1 24.2 1.4 12.1 2.8 24.3 5.4 36.2q0.4 2.1 1.3 4.2 0.8 2 2.1 3.8 1.3 1.9 2.9 3.4 1.6 1.5 3.5 2.7c5.2 3.1 10 2.5 15.8 1.7 12.1-1.8 24.3-3.4 36.5-5.2 4.9-0.7 9.8-1.4 14.7-2.2q2-0.2 3.8-0.9 1.9-0.6 3.5-1.7 1.6-1.1 3-2.6 1.3-1.4 2.3-3.1c5.5-10.6 1-24-1.5-34.8-2.4-10.3-4.9-20.6-8-30.6-1.9-6.1-11.6-3.5-9.7 2.7 2.3 7.3 4.2 14.9 6 22.3 2.2 8.6 5.1 17.7 5.6 26.5 0.3 3.5 0.3 8.8-2.9 11.2-2.4 1.8-7 1.7-10 2.2-10.4 1.6-20.9 3-31.4 4.5q-7.7 1-15.4 2.2c-3.9 0.5-6.6 0.3-9.5-2.7-3.3-3.5-3.5-8.9-4.3-13.3q-1.3-8-2.4-16.1-0.4-3.1-0.8-6.2-0.5-3.1-0.8-6.2-0.3-3.2-0.5-6.3-0.3-3.2-0.4-6.3c0-0.2 0-1.6-0.1-1.1 0 0.4 0.3-1.4 0.4-1.8q0.2-0.6 0.4-1.1 0.2-0.5 0.5-1 0.3-0.6 0.6-1 0.4-0.5 0.8-0.9c2.3-2.3 6.5-2.7 9.5-3.4 10.4-2.4 21-4.2 31.5-5.9 7.5-1.3 19.9-5.3 23.2 4.4 2.1 6.1 11.8 3.5 9.7-2.7z"/><path class="c" d="m184.2 571.8c4.7 0.7 9.4 1.5 14.1 2.4q3.2 0.6 6.5 1.2c1 0.2 2.9 0.4 3.7 1.2q0.1 0.3 0.2 0.7 0.2 0.3 0.3 0.6 0.1 0.3 0.1 0.7 0.1 0.3 0.1 0.6c0.1 0.8 0.1 0.2 0 0 0.1 0.6 0.1 1.3 0.1 1.9q0.1 3.8 0 7.6c-0.2 5.3-0.7 10.6-1.2 15.9-0.7 6-1.5 12-2.4 18q-0.1 0.5-0.2 1-0.1 0.4-0.2 0.9-0.1 0.5-0.1 1-0.1 0.5-0.1 0.9l1.2-0.6h-1q-0.1 0-0.1 0-0.1-0.1-0.2-0.1-0.1 0-0.2 0 0 0-0.1 0-1.7 0-3.4-0.1-10.3-0.3-20.6-0.6c-6.9-0.2-13.8-0.3-20.6-0.8-6.5-0.4-6.4 9.6 0 10 14.4 1 29 1.1 43.5 1.5 5 0.2 9.6-1.1 11.1-6.6q0.3-1.2 0.5-2.4 0.2-1.3 0.4-2.5 0.2-1.2 0.4-2.5 0.1-1.2 0.2-2.5 0.8-5.6 1.5-11.2c0.7-6.1 1.3-12.2 1.5-18.3q0.3-1.9 0.3-3.9 0.1-1.9-0.1-3.8-0.1-2-0.4-3.9-0.3-1.9-0.7-3.8c-2.1-6.1-7.5-7.9-13.3-9-6-1.2-12.1-2.3-18.1-3.1q-1-0.3-2-0.1-1 0.1-1.8 0.6-0.9 0.5-1.5 1.3-0.6 0.7-0.9 1.7-0.3 0.9-0.1 1.9 0.1 1 0.6 1.9 0.5 0.8 1.3 1.5 0.7 0.6 1.7 0.8z"/><path class="c" d="m70.4 678.2q76.7 2 153.5 1.2c6.2-0.1 12.7 0.3 18.9-0.3q2.4-0.4 4.5-1.4 2.1-1.1 3.8-2.8 1.7-1.6 2.9-3.8 1.1-2.1 1.5-4.4 0.1-1.2 0.2-2.5 0-1.2 0.1-2.4 0-1.2 0-2.4 0-1.2-0.1-2.4 0.1-4.4 0.1-8.9c0.1-5.8 1.1-12.8-4.7-16.3q-0.9-0.5-1.9-0.8-1-0.4-2-0.6-1-0.2-2.1-0.3-1-0.1-2 0-5-0.3-10-0.4-10.8-0.4-21.7-0.6c-15.4-0.3-30.9-0.5-46.3-0.5-32-0.2-64-0.8-96 0.7-6.4 0.2-6.4 10.3 0 10 26.1-1.2 52.3-0.8 78.4-0.8 28.9 0.1 57.8 0.2 86.6 1.2q4.5 0.2 9 0.4c1 0 1.6 0.1 2.4 0.1 1.1 0.1 0.3 0.1 0.4 0.3q0 0.6 0.1 1.1 0 0.6 0 1.2 0 0.6 0 1.2-0.1 0.6-0.2 1.2 0 1.7 0 3.3 0 4.3-0.1 8.5c0 3.8 1.3 11.4-4.1 12.1q-1.1 0.1-2.1 0.2-1.1 0-2.2 0-1 0.1-2.1 0-1 0-2.1 0-4.6 0-9.2 0.1-38.2 0.3-76.5 0c-25.6-0.2-51.3-0.6-76.9-1.2-6.5-0.2-6.5 9.8-0.1 10z"/><path class="c" d="m433.7 668.2c-49.4 1.9-99 1.6-148.4 1.2q-9.2-0.1-18.3-0.2-0.9 0.1-1.8 0.2-0.9 0-1.8 0-0.9 0-1.8-0.1-0.8-0.1-1.7-0.2-0.9-0.4-1.5-0.9-0.7-0.6-1.2-1.4-0.5-0.8-0.7-1.7-0.2-0.9-0.1-1.8c0-6.6-0.1-13.3-0.2-19.9q0-1 0-1.9c0.1-1.1 0.4-1.4-0.2-1 0.2-0.1 1.5-0.4 1.1-0.3q1.4-0.2 2.9-0.3 1.4-0.1 2.9-0.2 1.4 0 2.9-0.1 1.4 0 2.8 0c29.5-1.3 59.1-1.3 88.6-1.3 25.2 0.1 50.6 0.3 75.8 1.7 6.4 0.4 6.4-9.6 0-10-23.8-1.3-47.7-1.6-71.4-1.7-30.7-0.1-61.3-0.1-91.9 1.2q-5.8 0.3-11.5 0.6-1.2 0-2.4 0.1-1.1 0.2-2.2 0.6-1.2 0.3-2.2 0.9-1 0.5-2 1.2-0.9 1-1.5 2.1-0.7 1.1-1.1 2.3-0.5 1.3-0.6 2.6-0.1 1.3 0 2.5c0 3.4 0.1 6.8 0.1 10.2 0.1 7.5-1.2 15.5 4 21.6 4.7 5.5 11 5 17.5 5.1q41.5 0.5 83 0.2c27.6-0.1 55.3-0.2 82.9-1.3 6.4-0.2 6.5-10.3 0-10z"/><path class="c" d="m75.5 673.2c-0.8-21.6-1.7-43.1-2.5-64.7-0.2-6.9 1.1-17.2-4.7-22.2-3.8-3.4-8-3.3-12.9-3.2-8.8 0.2-16.9 0.7-24.2 6.2q-1.3 1-2.5 2.1-1.2 1-2.2 2.2-1.1 1.3-2 2.6-0.9 1.3-1.6 2.7-0.7 1.5-1.2 3.1-0.4 1.6-0.7 3.2-0.3 1.7-0.4 3.3-0.2 1.7-0.1 3.3c-0.2 22.5-0.7 44.9-0.4 67.3 0.2 17.4-1.1 38.2 11.6 52q1.7 2 3.7 3.7 2 1.8 4.3 3.2 2.2 1.4 4.6 2.4 2.5 1.1 5 1.8 2.4 0.5 4.8 0.8 2.4 0.3 4.9 0.5 2.4 0.2 4.8 0.2 2.5 0 4.9-0.1 41.5 0 83 0 45.6 0.1 91.1 0.1 41.9 0 83.9 0 45.7-0.1 91.5-0.1h16.7q2.4 0.1 4.8 0.1 2.4 0 4.8-0.2 2.4-0.1 4.8-0.4 2.3-0.3 4.7-0.7 2.6-0.6 5-1.6 2.5-1 4.8-2.4 2.3-1.4 4.3-3.1 2.1-1.7 3.9-3.6 2-2.3 3.7-4.9 1.7-2.5 3-5.3 1.3-2.7 2.2-5.6 0.9-2.9 1.4-5.9 0.6-3.6 0.9-7.3 0.4-3.6 0.6-7.2 0.2-3.6 0.3-7.3 0-3.6-0.1-7.2c0.2-11.3 0.2-22.6 0.1-33.8-0.1-11.2-0.3-22.3-0.5-33.5q0.1-1.7 0.1-3.4-0.1-1.7-0.3-3.4-0.2-1.7-0.6-3.4-0.4-1.7-0.9-3.3-0.6-1.5-1.4-2.9-0.8-1.4-1.8-2.7-1-1.3-2.1-2.5-1.2-1.2-2.5-2.2-1.3-1-2.6-1.9-1.4-0.9-2.9-1.7-1.5-0.7-3.1-1.3-1.6-0.5-3.2-0.9-1.6-0.3-3.2-0.4-1.6-0.2-3.3-0.3-1.6-0.2-3.3-0.2-1.6 0-3.2 0c-5-0.1-9.6-0.3-13.6 3.2-5.8 5.1-4.4 15.8-4.6 22.7q-0.6 16.1-1.2 32.1-0.6 16-1.2 32c-0.3 6.5 9.8 6.5 10 0 0.7-20.2 1.5-40.3 2.3-60.5 0.1-4.5 0.3-9.1 0.5-13.6q0-0.5 0-1 0-0.5 0.1-1 0-0.5 0.1-1 0.1-0.5 0.2-1c0.1-0.3 0.3-1 0.4-1.2 0.1-0.5 0.6-0.5 0.2-0.2q0.1 0 0.2-0.1 0.1-0.1 0.2-0.1 0-0.1 0.1-0.1 0.1-0.1 0.3-0.1c0.1-0.1-1 0.1-0.1 0 0.1 0 1.2-0.2 0.5-0.1-0.8 0.1 0.7 0 1 0 3.2-0.1 6.4 0.1 9.6 0.2 7.3 0.1 14.7 2.8 18.1 9.9 1.8 3.7 1.2 8.2 1.2 12.2q0.1 7.6 0.2 15.2c0.3 21.1 0.6 42.2-0.1 63.2-0.4 13.7-2.4 28.5-15.3 36.1-5.7 3.4-12.1 3.6-18.4 3.6h-14.1q-41.2 0-82.4 0-42 0.1-84.1 0.1-39.2 0-78.4 0l-87-0.1q-15.5 0-31 0c-6.7 0-13.1-0.6-18.8-4.5q-1.8-1.3-3.5-2.9-1.7-1.6-3-3.5-1.4-1.8-2.5-3.8-1.1-2-1.8-4.2-0.8-2.9-1.5-5.9-0.6-2.9-1-5.9-0.3-3-0.5-6-0.2-3.1-0.1-6.1c-0.3-10.4-0.3-20.9-0.3-31.4 0-10.6 0.2-21.1 0.3-31.7q0.1-7.9 0.2-15.9-0.1-1.3 0-2.6 0.1-1.3 0.4-2.5 0.2-1.3 0.7-2.5 0.5-1.3 1.2-2.4c4.2-6.3 11.3-8.4 18.5-8.6q4.5-0.1 9-0.1c1 0-0.1-0.1 0.1-0.1q0.1 0.1 0.2 0.1 0.1 0 0.2 0 0.1 0.1 0.2 0.1 0.1 0 0.2 0.1c0.3 0.1-1.1-0.5-0.2-0.1 0.9 0.4-0.5-0.5 0.1 0q0.4 0.7 0.8 1.5 0.3 0.7 0.5 1.5 0.2 0.8 0.3 1.6 0.1 0.8 0 1.6c0.1 4.7 0.3 9.3 0.5 13.9q0.5 15.1 1.1 30.2 0.6 14.9 1.1 29.7c0.3 6.4 10.3 6.5 10.1 0z"/><path class="c" d="m439.6 592c0-9.3 0-18.5-0.1-27.8 0-9.4 0.7-18.4-4-26.9q-1.8-3.3-4.3-6.1-2.4-2.9-5.4-5.2-3-2.3-6.4-3.9-3.3-1.7-7-2.6-1.7-0.3-3.5-0.5-1.8-0.2-3.6-0.3-1.8-0.1-3.6-0.1-1.8 0-3.6 0.1-6.9-0.1-13.9-0.2c-28.5-0.3-56.9-0.6-85.4-0.6h-85c-26.6 0-53.1 0.1-79.7 0.4-10 0.2-19.9 0.3-29.9 0.4q-1.7-0.1-3.4-0.1-1.8 0-3.5 0.1-1.7 0.1-3.5 0.3-1.7 0.2-3.4 0.5-1.9 0.5-3.7 1.2-1.9 0.7-3.6 1.6-1.7 0.9-3.4 1.9-1.6 1.1-3.1 2.3-2.9 2.2-5.2 4.8-2.3 2.7-4 5.8-1.7 3-2.7 6.4-1 3.4-1.3 6.9c-0.5 8.8-0.1 17.7-0.2 26.5q0 7.5 0 15.1c0 6.4 10 6.4 10 0 0-9 0.1-18 0.1-26.9 0.1-8.5-1.1-16.9 3.6-24.4q1.8-2.7 4.2-5 2.4-2.2 5.3-3.8 2.9-1.6 6.1-2.4 3.2-0.8 6.5-0.8c9.1 0 18.2-0.1 27.2-0.2q39.9-0.6 79.7-0.5h81.8c24.7 0 49.5-0.1 74.2 0.3q14.6 0.2 29.2 0.3c8.5 0.1 17.7-1.2 25.4 3.3 7 4.1 12.9 11.4 12.9 19.8 0.1 8.5 0.1 17.1 0.2 25.6q0 7.4 0 14.7c0 6.4 10 6.4 10 0z"/><path class="c" d="m428.6 738.5v14.1c-2.6 0-23.3 0.2-27.1 0.2 0-6.1 0-14.3 0-14.3"/><path class="c" d="m423.6 738.5v14.1l5-5c-9.1 0.1-18.1 0.2-27.1 0.2l5 5q0-7.2 0-14.3c0-1.3-0.6-2.6-1.5-3.5-0.9-1-2.2-1.5-3.5-1.5-1.4 0-2.6 0.5-3.6 1.5-0.9 0.9-1.5 2.2-1.5 3.5q0 7.1 0 14.3 0.1 1 0.5 1.9 0.3 0.9 1 1.6 0.7 0.7 1.7 1.1 0.9 0.4 1.9 0.4c9 0 18-0.1 27.1-0.2q1 0 1.9-0.4 0.9-0.3 1.6-1 0.7-0.8 1.1-1.7 0.4-0.9 0.4-1.9v-14.1c0-1.3-0.5-2.6-1.5-3.5-0.9-1-2.2-1.5-3.5-1.5-1.3 0-2.6 0.5-3.6 1.5-0.9 0.9-1.4 2.2-1.4 3.5z"/><path class="c" d="m96.9 738.5v15.5c-2.6 0-23.2 0.1-27.1 0.1 0-6.6 0-15.6 0-15.6"/><path class="c" d="m91.9 738.5v15.5l5-5.1c-9 0.1-18.1 0.2-27.1 0.2l5 5q0-7.8 0-15.6c0-1.3-0.5-2.6-1.5-3.5-0.9-1-2.2-1.5-3.5-1.5-1.3 0-2.6 0.5-3.6 1.5-0.9 0.9-1.4 2.2-1.4 3.5q0 7.8 0 15.6 0 1 0.4 1.9 0.4 0.9 1.1 1.6 0.7 0.7 1.6 1.1 0.9 0.4 1.9 0.4c9 0 18.1-0.1 27.1-0.1q1 0 1.9-0.4 0.9-0.4 1.6-1.1 0.7-0.7 1.1-1.6 0.4-1 0.4-1.9v-15.5c0-1.3-0.5-2.6-1.5-3.5-0.9-1-2.2-1.5-3.5-1.5-1.3 0-2.6 0.5-3.5 1.5-1 0.9-1.5 2.2-1.5 3.5z"/><path class="b" d="m795 144v-0.9c-11.7 0-215.7-0.1-236.7-0.1 0 149.9-0.6 399.8-0.6 467.3 19.2 0 229.5 0.1 236.7 0.1 0-66.5 0.6-454.8 0.6-465.4z"/><path class="d" d="m688.3 153.9v-10.8l-22.9-0.1c0.1 96.5-0.4 259.4-0.4 270.1 7.6 0 15.2 0 22.8 0 0-10.7 0.4-159.8 0.5-259.2z"/><path class="c" d="m562.7 610.6q0-29 0.1-58 0-43.6 0.1-87.2 0.1-52.2 0.2-104.3 0-53.9 0.1-107.9 0.1-49.5 0.1-99.1v-11c0-6.5-10-6.5-10 0q0 48.6-0.1 97.1-0.1 53.7-0.1 107.5-0.1 52.7-0.2 105.4-0.1 45-0.1 90-0.1 31.2-0.1 62.3v5.2c0 6.4 10 6.4 10 0z"/><path class="c" d="m670 410.4c0-25.7 0.1-51.4 0.1-77.1q0.2-61.1 0.3-122.2 0-31.4 0-62.8c0-6.5-10-6.5-10 0q0 58.9-0.1 117.8-0.2 55.3-0.3 110.6 0 16.9-0.1 33.7c0 6.4 10.1 6.4 10.1 0z"/><path class="c" d="m692.8 410.4c0-25.7 0.1-51.4 0.2-77.1q0.1-61.1 0.2-122.2 0.1-31.4 0.1-62.8c0-6.5-10.1-6.5-10.1 0q0 58.9-0.1 117.8-0.1 55.3-0.3 110.6 0 16.9 0 33.7c0 6.4 10 6.4 10 0z"/><path class="c" d="m790 145q0 22-0.1 44.1 0 49.4-0.1 98.7-0.1 61.2-0.2 122.5 0 58.1-0.1 116.2 0 38.9-0.1 77.7 0 2.8 0 5.5c0 6.4 10.1 6.4 10.1 0q0-35.8 0-71.6 0.1-56.4 0.1-112.7 0.1-61.6 0.2-123.3l0.1-103.7q0.1-26 0.1-52.1v-1.4c0-6.4-10-6.4-10 0.1z"/><path class="c" d="m558.2 418q43.1 0 86.1 0.1h118.6q15.7 0 31.4 0.1c6.5 0 6.5-10.1 0-10.1q-39.7 0-79.3 0l-120.6-0.1q-18.1 0-36.2 0c-6.4 0-6.4 10 0 10z"/><path class="c" d="m558.2 148q43.1 0 86.1 0l119.3 0.1q15.7 0 31.4 0c6.4 0 6.4-10 0-10q-39.7 0-79.4 0l-121.2-0.1q-18.1 0-36.2 0c-6.4 0-6.4 10 0 10z"/><path class="c" d="m558.2 615.3q43.1 0 86.1 0l119.3 0.1q15.7 0 31.4 0c6.4 0 6.4-10 0-10q-39.7 0-79.4-0.1-60.6 0-121.2 0-18.1 0-36.2-0.1c-6.4 0-6.4 10.1 0 10.1z"/><path class="c" d="m566.2 624.5q40.1 0 80.2 0l111.2 0.1q14.7 0 29.4 0c6.4 0 6.4-10 0-10q-37 0-73.9 0l-113-0.1q-16.9 0-33.9 0c-6.4 0-6.4 10 0 10z"/><path class="c" d="m558.2 490.8q42.8 0 85.6 0l118.8 0.1q15.8 0 31.5 0c6.5 0 6.5-10 0-10q-39.4 0-78.9 0l-120.7-0.1q-18.1 0-36.3 0c-6.4 0-6.4 10 0 10z"/><path class="b" d="m465.8 38.4v-0.2c-12.6 0-233.3 1-256.1 1 0 102.9-0.6 274.4-0.6 320.2 27.6 0 269.9-0.2 256.1-0.2 0-45.5 0.6-310.1 0.6-320.8z"/><path class="b" d="m218 22.1l-7.7 15.4-0.9 1.8c21 0 241.6-1.1 256.2-1.1-0.2-0.4-0.4-0.7-0.4-0.7l-12.4-24.9q-0.3-0.9-0.8-1.8-0.5-0.8-1-1.6-0.6-0.8-1.3-1.5-0.7-0.7-1.4-1.4-0.8-0.3-1.5-0.6-0.8-0.3-1.6-0.4-0.9-0.2-1.7-0.2-0.8-0.1-1.7 0c-10.5 0-57.2 0-104 0-46.9 0-93.6 0-104.1 0q-0.9-0.1-1.7 0-0.8 0-1.6 0.2-0.8 0.1-1.6 0.4-0.8 0.3-1.6 0.6-0.7 0.7-1.4 1.4-0.7 0.7-1.2 1.5-0.6 0.8-1.1 1.6-0.5 0.9-0.8 1.8z"/><path class="d" d="m337.7 82.7c-59.1 0-96.1 38-96.1 94.2 0 53.3 36 94.2 96.2 94.2 60.4 0 96.1-39 96.1-94.2 0-53.4-31.8-94.2-96.2-94.2z"/><path class="c" d="m454.2 360.1v14.6c-2.5 0-22 0.1-25.7 0.1 0-6.2 0-14.7 0-14.7"/><path class="c" d="m449.2 360.1v14.6l5-5c-8.6 0-17.1 0.1-25.7 0.1l5.1 5q0-7.3 0-14.7c0-1.3-0.6-2.6-1.5-3.5-1-1-2.2-1.5-3.6-1.5-1.3 0-2.6 0.5-3.5 1.5-0.9 0.9-1.5 2.2-1.5 3.5q0 7.4 0 14.7 0.1 1 0.4 1.9 0.4 1 1.1 1.7 0.7 0.7 1.6 1.1 1 0.3 1.9 0.4c8.6 0 17.1-0.2 25.7-0.2q1 0 1.9-0.4 0.9-0.4 1.6-1.1 0.7-0.7 1.1-1.6 0.4-0.9 0.4-1.9v-14.6c0-1.3-0.5-2.6-1.5-3.5-0.9-1-2.2-1.5-3.5-1.5-1.3 0-2.6 0.5-3.6 1.5-0.9 0.9-1.4 2.2-1.4 3.5z"/><path class="c" d="m246.3 360.1v14.6c-2.4 0-21.9 0.1-25.6 0.1 0-6.2 0-14.7 0-14.7"/><path class="c" d="m241.3 360.1v14.6l5-5c-8.5 0-17 0.1-25.6 0.1l5 5q0-7.3 0-14.7c0-1.3-0.5-2.6-1.5-3.5-0.9-1-2.2-1.5-3.5-1.5-1.3 0-2.6 0.5-3.5 1.5-1 0.9-1.5 2.2-1.5 3.5q0 7.4 0 14.7 0 1 0.4 1.9 0.4 1 1.1 1.7 0.7 0.7 1.6 1.1 0.9 0.3 1.9 0.4c8.6 0 17.1-0.2 25.6-0.2q1 0 2-0.4 0.9-0.4 1.6-1.1 0.7-0.7 1.1-1.6 0.3-0.9 0.4-1.9v-14.6c0-1.3-0.6-2.6-1.5-3.5-0.9-1-2.2-1.5-3.6-1.5-1.3 0-2.6 0.5-3.5 1.5-0.9 0.9-1.5 2.2-1.5 3.5z"/><path class="e" d="m337.7 106.8c-44 0-71.5 28.3-71.5 70.1 0 39.6 26.8 70 71.6 70 44.9 0 71.5-29 71.5-70 0-39.8-23.7-70.1-71.6-70.1z"/><path class="c" d="m214.1 359.5q0-49.9 0.2-99.7 0.2-72.6 0.3-145.2 0.1-37.7 0.1-75.4c0-6.4-10-6.4-10 0q0 70.2-0.2 140.4-0.1 66.8-0.3 133.7-0.1 23.1-0.1 46.1c0 6.5 10 6.5 10 0.1z"/><path class="c" d="m463.7 354.2q-43.3 0-86.6 0.1-62.6 0.1-125.1 0.1-20.7 0-41.3 0c-6.5 0-6.5 10.1 0 10.1q46.3 0 92.6-0.1l123.4-0.1q18.5-0.1 37-0.1c6.4 0 6.4-10 0-10z"/><path class="c" d="m460.8 38.2c0 10.2 0 20.3-0.1 30.4q0 34.1-0.1 68.1-0.1 42.3-0.2 84.6 0 40-0.1 80.1-0.1 26.8-0.1 53.6v3.8c0 6.5 10 6.5 10 0q0-24.6 0.1-49.1 0.1-38.9 0.1-77.8 0.1-42.5 0.2-85.1 0.1-35.8 0.1-71.5c0.1-12 0.4-24.1 0.1-36.1q0-0.5 0-1c0-6.4-10-6.4-10 0z"/><path class="c" d="m209.7 44.3c10.9 0 21.9-0.1 32.8-0.1q30.1-0.2 60.2-0.3 34.5-0.1 68.9-0.3 30.1-0.1 60.2-0.2 16.3-0.1 32.7-0.2h1.3c6.5 0 6.5-10 0-10-9.3 0-18.7 0.1-28 0.1l-57.8 0.3-68.7 0.3q-31.2 0.1-62.3 0.2-18.7 0.1-37.3 0.1h-2c-6.4 0-6.5 10.1 0 10.1z"/><path class="c" d="m210.9 316.9q48.7 0 97.3-0.1 60.5 0 120.9-0.1 17.5 0 34.9 0c6.5 0 6.5-10 0-10q-41.7 0-83.4 0-62.4 0.1-124.8 0.2-22.5 0-44.9 0c-6.5 0-6.5 10 0 10z"/><path class="c" d="m337.7 101.8c-16.1 0.1-32.6 3.7-46.1 12.9q-4.7 3.2-8.7 7.1-4.1 3.9-7.4 8.5-3.4 4.5-6 9.5-2.5 5-4.3 10.4c-9.6 29.4-2.5 65.8 22.5 85.5q4.9 3.8 10.4 6.7 5.4 2.9 11.3 5 5.8 2.1 11.9 3.2 6.1 1.1 12.3 1.2c16.6 0.7 33.8-2.5 48-11.2 27.5-17 36.7-50.6 31.1-81.1q-0.9-5.4-2.6-10.6-1.7-5.2-4.2-10-2.5-4.8-5.7-9.2-3.3-4.4-7.1-8.3-4.3-3.9-9.2-7.1-4.9-3.2-10.2-5.6-5.3-2.3-10.9-3.9-5.6-1.5-11.4-2.1-1.7-0.2-3.4-0.4-1.7-0.1-3.4-0.3-1.7-0.1-3.4-0.1-1.7-0.1-3.5-0.1c-6.4 0-6.4 10 0 10 14.7 0.1 29.4 3 41.7 11.3q3.7 2.6 6.9 5.8 3.3 3.2 6 6.9 2.7 3.6 4.8 7.7 2 4 3.4 8.4c8.3 25.1 4 56.5-16.5 74.6q-3.9 3.2-8.3 5.9-4.4 2.6-9.1 4.5-4.8 1.9-9.8 3.1-4.9 1.2-10 1.5c-15.1 1.4-30.8-0.5-44.3-7.9-24.8-13.6-34.8-42.8-30.3-69.8q0.7-4.9 2.2-9.7 1.5-4.7 3.8-9.1 2.2-4.5 5.1-8.5 3-4 6.5-7.5 3.8-3.5 8-6.3 4.3-2.8 8.9-4.9 4.6-2 9.6-3.4 4.9-1.3 9.9-1.9 1.5-0.1 2.9-0.3 1.4-0.1 2.9-0.2 1.4-0.1 2.9-0.1 1.4-0.1 2.9 0c6.4-0.1 6.4-10.1-0.1-10.1z"/><path class="c" d="m256.7 64l5-5c-8.6 0.1-17.1 0.2-25.7 0.2-1.3 0-2.6 0.5-3.5 1.5-1 0.9-1.5 2.2-1.5 3.5 0 1.3 0.5 2.6 1.5 3.6 0.9 0.9 2.2 1.4 3.5 1.4 8.6 0 17.1-0.1 25.7-0.1q1-0.1 1.9-0.4 0.9-0.4 1.6-1.1 0.7-0.7 1.1-1.7 0.4-0.9 0.4-1.9c0-1.4-0.6-2.6-1.5-3.6-0.9-0.9-2.2-1.5-3.5-1.5-1.4 0-2.6 0.6-3.6 1.5-0.9 1-1.4 2.2-1.4 3.6z"/><path class="c" d="m214.6 40l7.3-14.6 4.2-8.4c1.2-2.5 2.3-6.3 5.1-6.8q1.1-0.1 2.1-0.2 1.1 0 2.2 0 1-0.1 2.1 0 1 0 2.1 0.1h12.3q17.7 0 35.4 0 76.3 0 152.5 0 0.7-0.1 1.4-0.1 0.7-0.1 1.4 0 0.7 0 1.4 0.2 0.7 0.1 1.4 0.3c1.6 0.9 2.4 3.3 3.2 4.9q1.8 3.8 3.7 7.6l8.5 17c2.9 5.8 11.5 0.7 8.7-5l-7.7-15.5c-2.9-5.8-5.9-14.9-11.9-17.9-3.8-1.9-8.1-1.5-12.2-1.5h-12-36q-77.9 0-155.7 0-1.3-0.1-2.5-0.1-1.3 0.1-2.5 0.4-1.3 0.3-2.5 0.8-1.2 0.4-2.3 1.1-0.9 0.7-1.8 1.6-0.9 0.9-1.7 1.9-0.7 1-1.4 2.1-0.6 1-1.1 2.2-1.7 3.4-3.3 6.7l-9 18.1c-2.9 5.8 5.8 10.9 8.6 5.1z"/><path class="d" d="m373.7 164.9q0.6 2.1 1 4.3 0.4 2.1 0.6 4.3 0.2 2.2 0.1 4.4-0.1 2.3-0.4 4.4c0.1-0.5-0.1 0.2-0.1 0.4q-0.1 0.4-0.2 0.9-0.2 1-0.4 1.9-0.2 0.6-0.3 1.2-0.2 0.5-0.4 1.1-0.1 0.5-0.3 1.1-0.2 0.5-0.4 1.1-0.1 0.2-0.2 0.4-0.1 0.2-0.2 0.4-0.1 0.2-0.2 0.4-0.1 0.2-0.2 0.4-0.4 0.9-1 1.9-0.1 0.2-0.2 0.5-0.2 0.2-0.4 0.5-0.1 0.2-0.3 0.4-0.1 0.3-0.3 0.5c-0.5 0.7 0.4-0.5-0.1 0.1q-0.4 0.4-0.7 0.8c-4.6 4.6 2.5 11.7 7 7.1q1.8-2 3.3-4.2 1.4-2.3 2.5-4.7 1.1-2.5 1.8-5 0.8-2.6 1.1-5.3 0.4-2.7 0.5-5.5 0.1-2.8 0-5.6-0.2-2.7-0.7-5.5-0.5-2.7-1.2-5.4c-0.4-1.3-1.2-2.4-2.4-3-1.1-0.7-2.5-0.8-3.8-0.5-1.3 0.4-2.4 1.2-3 2.4-0.7 1.1-0.8 2.5-0.5 3.8z"/><path class="d" d="m358.7 218.1q0.6-0.2 1.2-0.6 0.5-0.3 1.1-0.6 0.5-0.4 1-0.7 0.6-0.4 1.1-0.8 0.6-0.3 1.1-0.9 0.5-0.5 0.8-1.2 0.4-0.7 0.5-1.4 0.1-0.7 0-1.5-0.1-0.2-0.1-0.5 0-0.2-0.1-0.4-0.1-0.3-0.2-0.5-0.1-0.2-0.2-0.4l-0.8-1q-0.3-0.3-0.5-0.5-0.3-0.2-0.5-0.3-0.3-0.2-0.6-0.3-0.3-0.1-0.6-0.2l-1.4-0.2q-0.3 0-0.6 0-0.4 0.1-0.7 0.2-0.3 0.1-0.6 0.2-0.3 0.1-0.6 0.3-0.5 0.4-1 0.7-0.6 0.4-1.1 0.7-0.5 0.4-1.1 0.7-0.5 0.3-1.1 0.6-0.4 0.3-0.8 0.6-0.3 0.3-0.6 0.7-0.3 0.4-0.5 0.8-0.3 0.4-0.4 0.9-0.1 0.2-0.1 0.5-0.1 0.2-0.1 0.5 0 0.3 0 0.5 0 0.3 0.1 0.5 0 0.3 0 0.5 0.1 0.2 0.2 0.5 0 0.2 0.1 0.4 0.2 0.3 0.3 0.5l0.8 1q0.2 0.2 0.5 0.4 0.2 0.2 0.5 0.4 0.3 0.1 0.6 0.3 0.3 0.1 0.6 0.2l1.3 0.2q0.3 0 0.7-0.1 0.3 0 0.6-0.1 0.3-0.1 0.6-0.2 0.4-0.2 0.6-0.3z"/><path class="c" d="m337.7 77.7c-21.5 0.1-43.4 5-61.4 17.3q-6.1 4.2-11.4 9.4-5.3 5.1-9.7 11.1-4.4 6-7.8 12.6-3.4 6.6-5.6 13.7c-12.7 39.2-3.1 87.2 30.3 113.3 17.5 13.6 39.1 20.1 61 20.9 21.8 0.7 44.4-3.5 63-15.1 36-22.5 48-66.8 40.8-106.9q-1.1-7-3.4-13.8-2.2-6.8-5.5-13.2-3.2-6.3-7.4-12.1-4.2-5.8-9.3-10.9c-15.1-14.7-35.1-22.5-55.7-25.2q-2.3-0.3-4.5-0.5-2.2-0.2-4.4-0.3-2.3-0.2-4.5-0.2-2.2-0.1-4.5-0.1c-6.4 0-6.4 10 0 10 20.1 0.1 40.4 4.2 57.2 15.7q5.1 3.6 9.6 8 4.5 4.4 8.2 9.5 3.7 5.1 6.5 10.7 2.8 5.6 4.7 11.6c11.1 34.2 5.1 76.9-22.8 101.6-14.1 12.4-32.7 19-51.2 20.7-20.6 1.9-42.1-0.8-60.4-10.9q-5.9-3.2-11.2-7.4-5.2-4.2-9.8-9.1-4.5-5-8.1-10.7-3.6-5.7-6.3-11.9-2.8-6.7-4.5-13.8-1.8-7-2.6-14.3-0.8-7.2-0.5-14.5 0.3-7.3 1.5-14.5 1.1-6.7 3.1-13.1 2.1-6.4 5.1-12.4 3.1-6 7.1-11.5 4-5.4 8.7-10.2 5.2-4.7 11-8.5 5.9-3.9 12.2-6.7 6.4-2.9 13.1-4.8 6.8-1.8 13.7-2.5 2-0.3 3.9-0.5 2-0.1 4-0.3 1.9-0.1 3.9-0.1 2-0.1 3.9-0.1c6.5 0 6.5-10 0-10z"/></svg>