<svg version="1.2" xmlns="http://www.w3.org/2000/svg" viewBox="0 0 800 800" width="800" height="800"><style>.a{fill:#808080}</style><path class="a" d="m571.7 95.1c-29.2 1.8-59.6 19.4-90.9 41.6-32.5 23.1-65.4 50.4-101 65.4q-1.8 0.8-3.7 1-2 0.1-3.9-0.3-2-0.5-3.6-1.5-1.7-1-3-2.5c-23.5-27-59.6-47.7-114.4-42.6-29.9 2.8-50.4 16.6-68.3 37-8.2 9.3-15.6 20.2-22.7 31.8h504.1c-23.8-46.6-45.4-100.3-92.6-129.9zm-509.2 154.9v68.8h650v-68.8zm28.7 93.8l77.1 291.5h16.1c4.8-10.3 11.4-19.9 19.6-28.1 18.6-18.6 44.7-29.5 71.6-29.5 26.9 0 53 10.9 71.6 29.5 8.2 8.2 14.8 17.8 19.6 28.1h67.2c4.8-10.2 11.4-19.5 19.4-27.5 18.6-18.6 44.3-29.3 70.7-29.3 26.3 0 52 10.7 70.7 29.3 8 8 14.5 17.3 19.4 27.5h9.4l61-291.6c0 0.1-593.4 0.1-593.4 0.1zm574.8 210.9l-9.5 45.3h56v-45.3zm-390.3 49.3c-18.3 0-37.1 7.7-50.4 21-13.3 13.3-21.5 32.8-21.5 52.1 0 19.3 8.2 38.8 21.5 52.1 13.3 13.3 32.1 21 50.4 21 18.2 0 37-7.7 50.3-21 13.3-13.3 21.5-32.8 21.5-52.1 0-19.3-8.2-38.8-21.5-52.1-13.3-13.3-32.1-21-50.3-21zm248.4 2c-18.8 0-38 7.9-51.3 21.2-13.3 13.3-21.2 32.5-21.2 51.3 0 18.8 7.9 38 21.2 51.3 13.3 13.3 32.5 21.2 51.3 21.2 18.8 0 38-7.9 51.3-21.2 13.3-13.3 21.2-32.5 21.2-51.3 0-18.8-7.9-38-21.2-51.3-13.3-13.3-32.5-21.2-51.3-21.2z"/></svg>