<svg version="1.2" xmlns="http://www.w3.org/2000/svg" viewBox="0 0 1024 1024" width="1024" height="1024"><style>.a{fill:#0f407d}</style><path class="a" d="m591 260.7c-29 0.8-75.9 5.4-100.7 9.8-24.2 4.2-46 12.5-55 20.8-9.9 9.2-17.3 23.4-38.3 74.2-7.3 17.5-13.8 32.7-14.4 33.7-1.8 3.1-6.8 3.6-39.6 4.8-17.3 0.6-55.8 2.4-85.5 3.9-58.5 3.2-59.2 3.3-69 9.6-6.1 3.9-13.6 11.8-16.3 17.1-1.1 2.1-3.2 7.9-4.8 12.7l-2.9 8.9-5-0.6c-2.9-0.4-7.4 0-10.6 0.7-23.1 5.6-34.4 31-23.1 52 2.5 4.6 12.3 14.7 14.3 14.7 0.5 0 0.9 0.5 0.9 1.1 0 2.5-13.5 38.4-15.1 40-1.1 1.1-4.3 1.9-10.5 2.4-10.7 0.9-13.7 2.3-16.5 7.6-1.8 3.7-2 5.5-1.7 19.9 0.3 15.3 0.4 15.9 2.8 18.6 4.4 4.7 7.8 5.5 23.5 5.3l14.4-0.1 0.5-4.1c0.2-2.3 0.9-8.7 1.5-14.1 4.8-42.8 37.5-79.8 81.1-91.7 11.6-3.2 41.1-3.8 54-1.1 19.9 4.1 37.5 13.2 52.2 27.1 22.8 21.5 32.9 42.9 35.4 75.3l0.6 8.8h143.9 143.8l0.5-4.3c0.3-2.3 0.8-7.4 1.1-11.2 3.1-35.9 26.4-69.3 59.9-86 17.8-8.8 25.6-10.7 47.1-11.3 14.1-0.3 20 0 26.9 1.3 37.1 6.9 69.7 34.1 82.6 68.7 3.3 9 5.9 21.8 6.6 32.5l0.7 10.3h19.6c18.6 0 19.9-0.1 24.8-2.4 7.8-3.7 8.6-5.8 8.1-23-0.4-15.2-1.4-18.5-6.3-22.4-1.5-1.2-4.9-2.3-8.3-2.7l-5.8-0.6-1.7-15.2c-5.9-51.9-21-86.8-49.7-114.1-5.1-4.7-10.3-9.4-11.6-10.2-2.3-1.6-2.4-2-2.4-14.5 0-44.7-14.6-84.4-42-114.1-17-18.5-35.3-27.5-64.7-31.8-35.1-5.1-97.1-7.8-145.3-6.3zm-11.9 58.6l3.4 2.3 0.3 39.4 0.2 39.3-2.2 2.4-2.2 2.3-74.9-0.2-74.9-0.3-1.9-2.4c-1.3-1.5-1.7-3.1-1.3-4.5 1.8-5.6 19.3-45.5 24.7-56 6.7-13.3 11.2-18.5 19-22.2l5.2-2.4h50.6 50.6zm140.2 1.4c18.6 7 34.3 20.8 42.7 37.4 4.7 9.2 11.9 30.4 12.7 37.1 0.6 5.1-0.5 7.4-4.2 8.8-1.1 0.4-34.2 0.3-73.5-0.1l-71.5-0.8-2.2-2.6c-2.3-2.6-2.3-2.7-2.3-39.1 0-23 0.4-37.2 1-38.4 2.6-4.9 3.6-5 49-4.7 40.8 0.3 42.7 0.4 48.3 2.4z"/><path class="a" d="m235.5 528.4c-43.3 8.4-74.5 45.4-74.5 88.2 0 34.5 19 65.4 49.5 80.5 14.8 7.3 22.9 9.1 40.5 9.3 15.5 0.1 21.9-1.1 34.3-6.1 14.4-5.9 31.7-20.4 41-34.6 5-7.5 10-18.5 12.3-26.7 2.8-9.8 2.5-33.6-0.5-44.5-8.5-31.3-34.3-57.1-65.1-64.9-9-2.3-28.7-2.9-37.5-1.2zm30.8 51.6c11 4.2 19.5 13.1 23.2 24.8 2.7 8.1 1.7 21.9-2 29.7-3.7 7.6-11.3 15.3-19 19.1-5.6 2.7-6.8 2.9-17.5 2.9-10.3 0-12.1-0.3-17.1-2.6-10.2-4.8-17.8-13.6-21.4-24.8-2.8-8.5-1.8-21 2.3-29.4 7.5-15.2 21.2-23.2 38.2-22.3 4.3 0.2 9.9 1.3 13.3 2.6z"/><path class="a" d="m747.8 528.5c-33.1 6.3-60.3 30.8-70.8 64-3.4 10.6-4 32.9-1.1 44.7 7.5 31.6 32.1 57.4 63.7 66.9 5.1 1.6 10.7 2.2 21.4 2.6 13.1 0.4 15.4 0.2 24.2-2.1 31.9-8.2 57-32.6 66-64.1 3-10.8 3.3-34.3 0.4-45-4.2-16.1-13.1-30.9-25.7-43.1-12.3-11.7-24.1-18.5-39.4-22.4-10.5-2.8-28.3-3.5-38.7-1.5zm26 50c12.8 3 20.3 8.9 25.9 20.3 3.6 7.2 3.8 8.1 3.8 17.1 0 15.3-5.6 26.7-16.7 34.1-7.7 5.1-14.2 7-24 7-17.8 0-32.4-10.3-37.9-26.9-3-8.8-2.4-21.2 1.3-29.4 8.3-17.8 27.6-26.9 47.6-22.2z"/></svg>