<svg version="1.2" xmlns="http://www.w3.org/2000/svg" viewBox="0 0 1024 1024" width="1024" height="1024"><style>.a{fill:#0f407d}</style><path class="a" d="m462 270.6c-70.3 3.2-94.5 5.4-115.8 10.4-10.4 2.5-16.9 5.2-25.6 10.7-8.8 5.6-14 10.6-35.5 33.8-26.9 29-58.6 61.9-62.6 64.9l-3.6 2.8-3.4-2.6c-1.8-1.4-5.7-4.8-8.7-7.5l-5.3-4.9v-7.3c-0.1-8.7-2.4-14-8.2-18.8-6.3-5.3-12.1-6.3-31.6-5.9-16.8 0.3-17.3 0.4-22.5 3.2-5.7 3.2-9.8 7.9-11.8 13.5-1.9 5.3-1.7 14.9 0.5 19.6 2.2 5 10.1 12.1 15 13.6 2 0.6 10.8 1.4 19.6 1.8 15.3 0.7 16.3 0.8 23.2 4 4 1.9 7.3 3.7 7.3 4.1 0 0.3-2.4 1.4-5.2 2.3-14.6 4.6-31.4 19.2-38.6 33.4-7.6 15.4-7.3 9-7 135.3l0.3 112.5 2.2 5.5c1.3 3 4 7.7 6.1 10.5 4 5.4 14 12.7 20 14.7 2.5 0.8 14 1.3 36.5 1.5 27.9 0.3 33.7 0.2 38.5-1.2 14.1-4 24.9-16.3 27-30.7l0.7-5.3h240.5 240.5l0.8 5.5c1.7 12.1 9.8 22.8 21.5 28.3l6.7 3.2h35.5 35.5l6.6-3.2c13.8-6.8 22.2-19.1 24-35.1 0.6-5.5 0.9-49.6 0.7-115.3-0.3-98.1-0.5-106.9-2.1-112.4-4.1-14-12.4-26.9-22.5-35-6.2-4.9-22.2-13.5-25.3-13.5-4.6 0-0.4-3 9.6-6.8 2.6-0.9 9.7-1.7 20-2.2 17.9-0.8 20.8-1.6 27.5-7.7 5.8-5.1 8-10.2 8-18.3 0-10.8-4.3-18-13.5-22.8-4.7-2.5-6-2.7-22.2-3-19.5-0.4-25.2 0.6-31.6 5.9-5.6 4.6-8 10.1-8.1 18.3l-0.1 7-8.8 7.8c-4.9 4.3-9.2 7.8-9.6 7.8-1.2 0-27.4-27.1-58.2-60-15.2-16.2-30-31.6-33-34.1-21.1-18-38.3-22.1-112.4-26.9-15.4-1.1-126-2.1-141.5-1.4zm136.5 32.8c60.5 3.8 78 5.8 87 10 8.4 3.8 14.3 9.4 36.1 33.8 11.5 12.8 27.5 30 35.6 38.3 8.2 8.2 14.8 15 14.8 15 0 0.1-4.2 0.2-9.2 0.3-5.1 0.2-29.5 0.9-54.3 1.7-95.5 3.1-132.5 3.8-203 3.8-40.1 0-89.9-0.5-110.5-1.1-72.2-2.2-129.5-4.3-134.5-4.7l-5-0.5 14-14.3c7.7-7.8 22.8-24.1 33.6-36.2 10.8-12.1 22.1-24.3 25.2-27.2 6.1-5.5 13.7-9.6 20.8-11.2 11.6-2.6 70.5-7.3 114.4-9.1 29.1-1.2 105.9-0.4 135 1.4zm233 161.9c5.3 1.9 9.4 5.8 12.2 11.5 2.3 4.8 2.8 7 2.8 13.7 0 9.6-2 16.1-7.8 24.6-7.3 11-18.1 17.1-36.5 20.5-11.3 2.1-44.2 2.9-61.3 1.5-24-2-32.5-4.4-35.4-10.1-5.1-9.8 3.5-21.7 24-33.2 27.7-15.6 80.6-32.2 96-30 1.7 0.2 4.4 0.9 6 1.5zm-605.6 1.3c15.2 3.4 37.4 10.8 53.5 17.8 29.2 12.8 43.7 24.8 44 36.6 0.2 10.1-8.3 13.7-37.9 15.9-36.2 2.8-65-0.1-81.2-7.9-12.7-6.2-19.9-15.7-22.9-30.4-2.4-11.3-0.6-19.9 5.7-27.1 7.2-8.2 18-9.5 38.8-4.9zm449.3 121.9c4.6 0.8 10.2 2.2 12.4 3.1 9.3 3.8 17.2 13.5 25.4 30.9 5.2 11 5.6 15.4 1.7 19.2l-2.7 2.8h-198.6-198.6l-2.9-3.3c-4.3-4.8-3.9-7.9 3.2-22.1 7.3-14.5 14.9-23.6 22.8-27 11.6-5 9.7-4.9 174.7-5 131.5-0.1 155.4 0.1 162.6 1.4z"/></svg>