<svg version="1.2" xmlns="http://www.w3.org/2000/svg" viewBox="0 0 800 800" width="800" height="800"><style>.a{fill:none;stroke:#000;stroke-width:50}.b{fill:none;stroke:#000;stroke-linecap:round;stroke-width:50}</style><path class="a" d="m200 133.3c0 36.9-29.8 66.7-66.7 66.7-36.8 0-66.6-29.8-66.6-66.7 0-36.8 29.8-66.6 66.6-66.6 36.9 0 66.7 29.8 66.7 66.6z"/><path class="a" d="m200 666.7c0 36.8-29.8 66.6-66.7 66.6-36.8 0-66.6-29.8-66.6-66.6 0-36.9 29.8-66.7 66.6-66.7 36.9 0 66.7 29.8 66.7 66.7z"/><path class="a" d="m466.7 666.7c0 36.8-29.9 66.6-66.7 66.6-36.8 0-66.7-29.8-66.7-66.6 0-36.9 29.9-66.7 66.7-66.7 36.8 0 66.7 29.8 66.7 66.7z"/><path class="a" d="m466.7 133.3c0 36.9-29.9 66.7-66.7 66.7-36.8 0-66.7-29.8-66.7-66.7 0-36.8 29.9-66.6 66.7-66.6 36.8 0 66.7 29.8 66.7 66.6z"/><path class="a" d="m733.3 133.3c0 36.9-29.8 66.7-66.6 66.7-36.9 0-66.7-29.8-66.7-66.7 0-36.8 29.8-66.6 66.7-66.6 36.8 0 66.6 29.8 66.6 66.6z"/><path fill-rule="evenodd" class="b" d="m400 200v233.3m0 166.7v-66.7"/><path fill-rule="evenodd" class="b" d="m133.3 600v-233.3m0-166.7v66.7"/><path fill-rule="evenodd" class="b" d="m666.7 200v66.7c0 62.8 0 94.2-19.6 113.8-19.5 19.5-50.9 19.5-113.8 19.5h-200m-200 0h66.7"/></svg>