<?xml version="1.0" encoding="utf-8"?><!-- Uploaded to: SVG Repo, www.svgrepo.com, Generator: SVG Repo Mixer Tools -->
<svg width="800px" height="800px" viewBox="0 0 960 960" fill="none" xmlns="http://www.w3.org/2000/svg">
<path d="M480.91 833.372C452.035 831.932 427.506 817.467 401.497 806.529C388.663 801.241 375.655 796.202 362.376 792.212C310.356 783.792 279.213 840.414 206.287 807.5C176.055 796.39 146.095 763.661 113.865 786.459C98.3282 796.17 83.3261 806.809 68.6281 817.763C61.0011 823.447 53.0861 825.063 46.5371 819.975C40.1441 815.008 38.6062 806.965 42.9942 798.761C64.1682 765.156 98.4462 740.781 138.467 735.313C167.664 732.169 192.095 752.909 217.267 764.632C258.494 789.07 299.258 754.059 340.572 746.651C407.4 729.627 457.366 813.991 524.259 775.486C589.888 743.992 629.793 741.087 694.968 775.716C762.199 806.185 824.373 723.537 897.488 738.936C927.63 742.391 926.569 784.88 895.816 786.112C885.54 786.635 874.72 784.947 865.072 787.613C796.622 804.393 748.318 852.921 675.768 819.584C585.535 767.973 565.184 828.542 480.91 833.372Z" fill="#000000"/>
<path d="M711.385 289.617C749.967 297.512 780.897 320.937 793.507 358.565C810.301 402.82 817.994 451.671 824.686 497.932C842.23 506.603 873.64 506.88 870.348 532.242C865.881 571.719 859.223 610.907 852.476 650.045C844.17 697.246 820.822 719.373 772.774 725.737C651.314 737.292 528.964 721.707 407.235 720.253C378.791 719.179 350.343 718.204 321.905 716.984C275.875 712.05 214.128 726.044 186.921 678.662C142.38 611.286 114.913 535.748 87.4052 460.344C75.0182 432.651 68.4902 390.957 108.663 385.832C125.585 383.891 142.893 384.672 160.003 385.185C171.116 385.518 170.582 386.056 174.908 375.737C191.912 337.867 205.787 297.971 225.704 261.606C242.16 238.572 266.379 228.8 293.423 226.482C349.963 223.119 406.824 226.586 463.45 226.261C465.583 226.27 468.558 223.282 469.737 220.972C478.426 203.951 486.215 186.45 495.375 169.695C502.747 156.21 513.151 145.025 526.692 137.167C538.477 130.328 550.924 127.728 564.739 128.406C610.046 128.163 655.708 122.441 700.311 133.439C727.184 138.814 739.531 156.408 734.517 183.31C727.725 218.914 719.489 254.272 711.385 289.617ZM263.449 289.524C263.845 290.431 264.242 291.338 264.638 292.245C295.054 293.855 326.01 292.068 355.925 298.706C375.05 302.417 378.043 319.422 371.593 335.731C364.487 361.053 354.123 369.208 327.901 369.546C295.025 369.97 262.146 370.117 229.271 370.572C219.944 371.145 219.386 385.338 215.195 392.301C255.48 400.054 296.571 404.28 337.217 410.396C389.161 413.903 432.663 419.178 470.007 459.47C481.669 470.567 495.157 477.958 510.327 482.92C597.213 503.38 688.056 494.59 776.748 500.277C768.376 454.221 761.483 410.864 744.45 367.854C735.899 343.126 709.057 336.682 685.291 336.943C603.636 335.407 521.76 335.847 440.288 329.917C409.457 327.052 411.509 285.264 441.73 283.661C448.944 283.053 456.252 283.554 463.542 283.554C463.752 276 459.819 274.923 454.482 274.879C407.601 274.488 360.721 273.698 313.841 273.73C295.674 273.643 278.191 278.531 263.449 289.524ZM816.479 604.205C755.217 600.638 695.061 600.538 633.953 597.633C569.6 588.425 490.419 606.728 439.924 557.626C419.389 534.448 389.864 524.064 359.795 521.299C292.743 514.999 224.984 513.742 157.768 513.938C160.79 520.964 161.621 531.537 170.317 532.893C225.497 534.49 280.692 535.564 335.867 537.259C382.734 536.919 403.92 563.003 437.214 590.402C462.666 612.185 496.559 611.583 528.225 612.157C623.513 612.451 718.253 617.287 813.105 626.601C814.321 618.532 815.371 611.559 816.479 604.205ZM682.178 253.492C683.686 244.346 685.224 235.021 686.917 224.754C630.918 232.637 575.547 227.847 518.552 226.799C515.402 234.328 511.41 243.868 507.384 253.491C566.169 253.492 623.949 253.492 682.178 253.492Z" fill="#000000"/>
<path d="M263.45 289.526C278.197 278.533 295.668 273.645 313.842 273.732C360.721 273.699 407.602 274.49 454.483 274.88C459.821 274.924 463.753 276.001 463.543 283.555C456.254 283.555 448.945 283.055 441.73 283.662C411.592 285.289 409.377 327.034 440.291 329.918C521.762 335.849 603.636 335.409 685.293 336.944C709.039 336.682 735.921 343.129 744.451 367.856C761.481 410.87 768.375 454.215 776.749 500.278C688.066 494.593 597.207 503.379 510.327 482.927C495.157 477.958 481.67 470.567 470.009 459.466C432.716 419.196 389.077 413.885 337.216 410.399C296.569 404.28 255.482 400.054 215.195 392.301C219.297 385.437 220.065 371.034 229.27 370.571C262.146 370.116 295.026 369.969 327.901 369.545C354.123 369.207 364.486 361.052 371.594 335.73C378.009 319.425 375.08 302.41 355.924 298.706C326.009 292.068 295.056 293.855 264.638 292.244C264.243 291.34 263.847 290.433 263.45 289.526ZM538.916 392.673C534.66 392.673 528.279 392.572 521.903 392.695C496.068 392.705 495.729 426.728 521.767 426.754C530.839 426.94 539.927 426.739 548.987 427.164C588.63 429.021 628.258 431.21 667.907 432.912C681.075 433.477 690.199 425.141 690.234 413.787C688.629 384.325 649.525 397.395 629.938 395.73C600.295 395.122 570.668 393.788 538.916 392.673Z" fill="white"/>
<path d="M816.48 604.205C815.373 611.559 814.323 618.532 813.108 626.6C718.256 617.286 623.516 612.45 528.228 612.16C496.562 611.581 462.669 612.185 437.219 590.397C404.017 563.045 382.591 536.867 335.868 537.261C280.694 535.563 225.499 534.489 170.32 532.892C161.6 531.526 160.877 520.986 157.77 513.937C224.985 513.74 292.746 514.998 359.797 521.294C389.87 524.064 419.387 534.446 439.926 557.621C490.435 606.731 569.58 588.42 633.954 597.637C695.068 600.538 755.204 600.636 816.48 604.205Z" fill="white"/>
<path d="M682.181 253.491C623.952 253.491 566.171 253.491 507.387 253.491C511.413 243.868 515.405 234.327 518.555 226.799C575.55 227.847 630.921 232.637 686.92 224.754C685.227 235.021 683.689 244.345 682.181 253.491Z" fill="white"/>
<path d="M538.917 392.672C570.67 393.787 600.296 395.121 629.938 395.729C649.539 397.381 688.635 384.333 690.235 413.786C690.199 425.14 681.075 433.476 667.907 432.91C628.258 431.208 588.63 429.019 548.987 427.162C539.927 426.738 530.839 426.939 521.766 426.752C495.781 426.73 496.017 392.707 521.904 392.693C528.28 392.571 534.661 392.672 538.917 392.672Z" fill="#000000"/>
</svg>